<?xml version="1.0" encoding="UTF-8" standalone="no"?>
<!-- Created with Inkscape (http://www.inkscape.org/) -->

<svg
   version="1.1"
   id="svg1"
   width="1024"
   height="1024"
   viewBox="0 0 1024 1024"
   sodipodi:docname="ChatGPT Image Jun 7, 2025 at 01_18_35 PM.png"
   xml:space="preserve"
   xmlns:inkscape="http://www.inkscape.org/namespaces/inkscape"
   xmlns:sodipodi="http://sodipodi.sourceforge.net/DTD/sodipodi-0.dtd"
   xmlns:xlink="http://www.w3.org/1999/xlink"
   xmlns="http://www.w3.org/2000/svg"
   xmlns:svg="http://www.w3.org/2000/svg"><defs
     id="defs1"><linearGradient
       id="linearGradient7"
       inkscape:collect="always"><stop
         style="stop-color:#4f62e0;stop-opacity:1;"
         offset="0"
         id="stop7" /><stop
         style="stop-color:#048df2;stop-opacity:1;"
         offset="1"
         id="stop8" /></linearGradient><linearGradient
       inkscape:collect="always"
       xlink:href="#linearGradient7"
       id="linearGradient9"
       gradientUnits="userSpaceOnUse"
       gradientTransform="matrix(1.1374433,0,0,1.1374433,42.482119,-340.90356)"
       x1="927.32251"
       y1="1186.6211"
       x2="1543.1903"
       y2="687.90112" /></defs><sodipodi:namedview
     id="namedview1"
     pagecolor="#ffffff"
     bordercolor="#000000"
     borderopacity="0.25"
     inkscape:showpageshadow="2"
     inkscape:pageopacity="0.0"
     inkscape:pagecheckerboard="0"
     inkscape:deskcolor="#d1d1d1"
     showgrid="false"><inkscape:page
       x="0"
       y="0"
       width="1024"
       height="1024"
       id="page2"
       margin="0"
       bleed="0" /></sodipodi:namedview><g
     inkscape:groupmode="layer"
     inkscape:label="Image"
     id="g1"
     transform="translate(-935.51603,-213.17786)"><path
       style="display:inline;fill:url(#linearGradient9);stroke-width:1.13745"
       d="m 1425.7562,1226.4177 c -17.5697,-3.6381 -21.1949,-5.3516 -66.1228,-31.2521 -18.1422,-10.4588 -45.5262,-26.2176 -60.8532,-35.0195 -35.8132,-20.5667 -42.6099,-24.5103 -155.2611,-90.0889 -51.9243,-30.2272 -97.2277,-57.1253 -100.6743,-59.7738 -17.5017,-13.44928 -33.1429,-35.14396 -39.668,-55.02022 -6.31904,-19.24895 -5.99931,-7.91957 -6.31279,-223.63894 -0.15923,-109.47891 0.11978,-203.65922 0.6198,-209.28956 2.40626,-27.09235 14.20909,-51.43796 35.05979,-72.31758 14.5439,-14.56407 -4.8457,-2.73492 171.8288,-104.82919 30.3413,-17.53324 61.0523,-35.30855 68.2466,-39.50072 13.1213,-7.64582 68.5834,-39.54946 98.3888,-56.59652 44.1315,-25.24073 61.2631,-29.81229 93.3863,-24.92014 19.0439,2.90025 24.6359,5.5027 77.799,36.20713 17.8294,10.29742 40.8626,23.60003 51.1849,29.56136 48.1897,27.83056 140.0842,80.84381 156.9672,90.55324 10.3223,5.93639 28.4929,16.43067 40.3792,23.32063 11.8863,6.88996 28.2655,16.36501 36.3982,21.05567 36.966,21.32065 55.5696,42.50367 65.7905,74.91286 5.2773,16.7329 5.2997,17.68838 5.2997,226.32783 0,211.10453 0.068,208.42505 -5.73,225.85091 -11.3864,34.22226 -29.3067,53.62964 -72.3968,78.40524 -27.0034,15.5261 -93.3007,53.9389 -120.9258,70.0647 -16.5782,9.6773 -35.2607,20.5544 -41.5167,24.1711 -6.2559,3.6168 -15.981,9.2671 -21.6114,12.5561 -141.7622,82.8131 -140.4753,82.0998 -157.1341,87.1022 -12.5326,3.7632 -40.0036,4.8789 -53.1418,2.1582 z"
       id="path8"
       inkscape:label="background" /><g
       id="g26"
       inkscape:label="face"><path
         style="display:inline;fill:#ffffff;fill-opacity:1;stroke-width:1.13745"
         d="m 1469.2452,644.22305 c 0.8551,-0.68738 2.8242,-3.93103 4.3758,-7.20814 3.5366,-7.46931 8.0473,-9.85704 23.0743,-12.21413 20.6324,-3.23634 37.2054,-4.06957 81.3272,-4.08888 24.3982,-0.0102 45.5335,-0.3337 46.9674,-0.71782 2.9192,-0.78195 2.8741,-2.56234 -0.4933,-19.47995 -4.4274,-22.24348 -17.3156,-48.97538 -33.7896,-70.0841 -1.8957,-2.42909 -7.4554,-12.10112 -12.3551,-21.49338 -15.0885,-28.92426 -28.2558,-47.3292 -47.8839,-66.93079 -10.153,-10.13942 -18.8809,-17.40668 -19.8007,-16.48694 -0.2484,0.24833 -1.1651,5.49837 -2.0371,11.66673 -3.2942,23.30046 -6.4316,35.07988 -9.8274,36.89727 -3.2736,1.75197 -6.2865,-0.53917 -21.1983,-16.12035 -17.8331,-18.63342 -27.9079,-26.68033 -49.8329,-39.80251 -10.4304,-6.24258 -19.0495,-11.20545 -19.1535,-11.02863 -0.1035,0.17681 0.1299,5.69591 0.5199,12.26464 0.39,6.56873 0.4722,21.25094 0.1824,32.62711 l -0.5267,20.68397 -4.1062,-3.28875 c -10.4191,-8.34492 -46.0728,-19.9428 -65.3318,-21.25189 l -10.0405,-0.68249 1.9571,4.43948 c 10.8934,24.71105 14.1431,36.50008 14.1431,51.3083 0,13.00764 -0.7691,14.03912 -15.5969,20.92109 -24.6805,11.45476 -36.5258,23.31029 -49.8923,49.93546 -6.515,12.97715 -10.7195,30.0306 -10.7195,43.47737 0,1.89404 2.3647,2.02341 37.8199,2.06915 87.0979,0.11237 106.4487,3.23667 116.4004,18.79361 5.0412,7.8806 6.3158,8.20477 29.4767,7.49651 8.335,-0.25486 15.4652,-0.99746 16.3415,-1.70194 z"
         id="path17"
         inkscape:label="hair" /><path
         id="path16"
         style="display:inline;fill:#ffffff;fill-opacity:1;stroke-width:1.13745"
         d="m 1509.7227,646.74219 c -13.0051,3.51419 -17.6398,19.82153 -15.3282,53.9414 2.7443,40.50589 4.8452,47.81567 17.0215,59.20508 12.5791,11.76625 27.3189,15.20596 66.041,15.41016 18.4862,0.0975 23.4209,-0.23586 29.6035,-2.00391 10.9729,-3.13799 15.7889,-5.99183 24.1368,-14.29883 12.9955,-12.93169 15.2086,-20.73758 16.4218,-57.9375 l 0.6993,-21.46484 6.3691,-2.80469 c 10.1653,-4.47639 10.5172,-5.01769 9.7422,-15.03515 -0.97,-12.53906 -1.2325,-13.27587 -5.3242,-14.97071 -4.7937,-1.98561 -142.0472,-2.02327 -149.3828,-0.041 z m 44.7753,30.06836 c 23.4377,-0.66112 32.3652,0.21395 39.9219,3.91015 6.7704,3.31163 7.4883,6.12484 7.4883,29.29297 0,19.73119 -0.1036,20.65645 -2.8437,25.53321 -5.0183,8.9303 -7.5164,9.69692 -32.4161,9.92968 -11.8863,0.11113 -23.7483,-0.23977 -26.3593,-0.77929 -5.3203,-1.09938 -10.7056,-3.62567 -12.6016,-5.91016 -3.8639,-4.65566 -5.9663,-46.34678 -2.7246,-54.02734 2.8344,-6.71562 4.8291,-7.25231 29.5351,-7.94922 z"
         inkscape:label="glasses_right" /><path
         id="path14"
         style="display:inline;fill:#ffffff;fill-opacity:1;stroke-width:1.13745"
         d="m 1311.2832,643.30469 c -38.8431,-0.51467 -77.2054,0.68582 -80.5762,4.05664 -2.1879,2.18787 -3.2169,16.16077 -1.6386,22.24023 0.9379,3.61227 1.7476,4.2229 9.4921,7.1543 4.6567,1.76265 9.1067,4.05077 9.8887,5.08398 1.0005,1.3219 1.433,7.45945 1.461,20.71289 0.049,23.1173 1.7771,33.63532 7.3984,45.01172 8.4895,17.18157 20.073,24.29212 45.4199,27.87696 7.916,1.11957 44.2066,0.31843 55.3965,-1.22266 22.3486,-3.07786 37.9814,-17.91478 41.8809,-39.75 1.3393,-7.49979 4.5566,-46.54137 4.5566,-55.29883 0,-8.07253 -6.3972,-27.38427 -9.8164,-29.63476 -5.2957,-3.48565 -44.6197,-5.7158 -83.4629,-6.23047 z m 28.4453,32.58398 c 35.0144,0 34.7364,-0.23173 34.5977,28.96094 -0.1462,30.74665 -2.0512,36.51442 -13.0235,39.44922 -9.4361,2.52393 -43.0296,3.1321 -51.6738,0.93555 -13.5454,-3.44196 -14.4907,-5.92138 -14.043,-36.85352 l 0.3516,-24.16211 3.0156,-2.59375 c 4.8671,-4.18308 15.9087,-5.73633 40.7754,-5.73633 z"
         inkscape:label="glasses_left" /><path
         d="m 1442.4512,688.27344 c -3.2885,-0.0531 -6.0871,0.0634 -7.7461,0.41015 -6.0061,1.25515 -6.9189,3.42278 -8.5,20.19141 -2.6639,28.25029 -5.8186,41.9182 -12.8028,55.45898 -8.7557,16.97532 -24.5461,28.37531 -44.5332,32.1543 -15.5621,2.94226 -46.9274,4.39354 -63.7304,2.94922 -8.1896,-0.70397 -16.3503,-1.27731 -18.1348,-1.27539 h -3.2441 l 0.5136,72.51172 c 0.4927,69.45036 0.6176,72.88609 2.9258,81.36914 8.0886,29.72572 31.9598,53.24393 61.4063,60.49803 10.7699,2.653 191.5671,1.8448 200.9804,-0.8984 v 0 c 30.5936,-8.9155 54.1387,-33.20418 62.0059,-63.96486 1.9318,-7.55285 2.2566,-12.57417 2.2402,-34.5332 -0.026,-34.91552 -2.0496,-105.70812 -3.1347,-109.66016 l -0.8809,-3.20703 -26.1328,-0.33984 c -50.9443,-0.66313 -70.3365,-5.31645 -87.1973,-20.92188 -16.4386,-15.21463 -22.7543,-32.15046 -26.1054,-70.00195 -0.7598,-8.58296 -1.9344,-16.3632 -2.6114,-17.28906 -1.1748,-1.60673 -15.4529,-3.29575 -25.3183,-3.45508 z m -61.9102,142.34961 c 0.7919,0.0232 1.5673,0.14002 2.3125,0.36328 5.6347,1.6883 63.0871,61.62033 67.791,70.71679 3.1852,6.15949 2.5723,7.07115 -21.9121,32.57422 -12.9811,13.52112 -27.2946,28.54089 -31.8086,33.37696 -7.1501,7.66022 -13.7357,12.50195 -17.0058,12.50195 -0.5409,0 -2.7538,-0.95068 -4.918,-2.11133 -5.2336,-2.80688 -10.184,-9.0947 -10.9414,-13.90039 -0.8688,-5.51115 2.7954,-10.54642 26.3789,-36.25195 10.8967,-11.87718 19.8125,-22.16407 19.8125,-22.85938 0,-0.69521 -8.5196,-10.5653 -18.9316,-21.93359 -25.3958,-27.72791 -27.7032,-30.70906 -27.7032,-35.78125 0,-8.27327 9.2711,-16.91928 16.9258,-16.69531 z m 134.8848,54.55664 h 40.2305 l 3.0253,2.83984 c 2.9937,2.81096 3.0216,2.98406 2.6524,16.3125 -0.5374,19.39648 3.5356,17.81445 -45.8574,17.81445 -34.6789,0 -40.3096,-0.23637 -41.5625,-1.74609 -2.0756,-2.50102 -2.2447,-31.69081 -0.1953,-33.74219 1.1572,-1.15849 10.2043,-1.47851 41.707,-1.47851 z"
         style="display:inline;fill:#ffffff;stroke-width:1.13745"
         id="path19"
         inkscape:label="mouth" /></g><path
       id="path28"
       style="fill:#ffffff;fill-opacity:1"
       d="m 1200.0431,444.24819 v 49.50586 c -11.7845,-1.02703 -25.8421,-3.22587 -47.4102,-6.58789 l 62.623,62.62109 62.0176,-62.76171 c -21.5288,3.38772 -35.6432,5.60758 -47.4101,6.66992 v -49.44727 z" /></g></svg>
